<?xml version="1.0" standalone="no"?>
<!DOCTYPE svg PUBLIC "-//W3C//DTD SVG 20010904//EN"
 "http://www.w3.org/TR/2001/REC-SVG-20010904/DTD/svg10.dtd">
<svg version="1.0" xmlns="http://www.w3.org/2000/svg"
 width="2000.000000pt" height="2000.000000pt" viewBox="0 0 2000.000000 2000.000000"
 preserveAspectRatio="xMidYMid meet">
<metadata>
Created by potrace 1.14, written by Peter Selinger 2001-2017
</metadata>
<g transform="translate(0.000000,2000.000000) scale(0.100000,-0.100000)"
fill="#000000" stroke="none">
<path d="M9805 18812 c-69 -118 -215 -366 -225 -382 -5 -8 -35 -58 -65 -110
-31 -52 -60 -102 -65 -110 -39 -63 -117 -196 -144 -245 -6 -11 -51 -87 -100
-170 -130 -219 -252 -426 -428 -725 -86 -146 -165 -281 -177 -300 -11 -19 -30
-51 -41 -70 -11 -19 -30 -52 -42 -72 -13 -20 -53 -88 -89 -150 -161 -277 -332
-564 -341 -575 -5 -6 -30 -17 -56 -23 -55 -12 -55 -12 -152 -38 -337 -89 -756
-237 -1100 -389 -198 -88 -555 -268 -680 -344 -25 -15 -67 -40 -95 -55 -134
-73 -453 -284 -675 -448 -308 -227 -567 -452 -875 -761 -507 -508 -963 -1111
-1279 -1690 -21 -38 -51 -92 -66 -120 -75 -137 -208 -415 -300 -629 -38 -90
-147 -379 -188 -501 -67 -197 -179 -590 -196 -688 -3 -15 -7 -35 -10 -45 -3
-9 -7 -28 -10 -42 -2 -14 -11 -57 -20 -95 -23 -110 -49 -254 -61 -335 -3 -25
-10 -70 -15 -100 -5 -30 -11 -73 -14 -95 -14 -113 -19 -151 -21 -165 -2 -9 -6
-58 -10 -110 -4 -52 -9 -102 -10 -111 -26 -135 -26 -986 0 -1219 2 -19 6 -69
10 -110 3 -41 8 -93 11 -115 3 -22 7 -57 9 -77 10 -82 16 -126 26 -188 6 -36
12 -78 15 -95 4 -35 15 -101 20 -130 2 -11 7 -33 10 -50 3 -16 12 -64 21 -105
8 -41 17 -86 19 -100 3 -14 10 -43 16 -65 5 -22 12 -49 14 -60 7 -35 12 -58
44 -178 25 -96 28 -121 19 -139 -7 -12 -38 -65 -69 -118 -274 -459 -397 -666
-590 -990 -122 -206 -238 -399 -256 -427 -19 -29 -34 -55 -34 -57 0 -6 -78
-138 -115 -196 -23 -35 -269 -448 -289 -485 -6 -11 -112 -189 -235 -395 -123
-206 -225 -378 -227 -382 -2 -3 785 -6 1750 -6 l1754 0 39 -44 c45 -52 439
-446 503 -504 174 -157 539 -454 656 -534 12 -8 55 -37 96 -65 40 -27 75 -53
78 -56 12 -14 363 -237 459 -292 20 -11 50 -28 66 -38 17 -10 62 -34 100 -55
39 -20 75 -40 80 -44 32 -24 491 -247 545 -265 3 -1 28 -12 55 -24 265 -121
812 -308 1125 -386 121 -29 240 -58 260 -61 14 -3 52 -11 85 -19 33 -7 76 -16
95 -19 61 -10 94 -16 140 -26 50 -10 100 -18 158 -26 68 -9 87 -12 122 -18 19
-3 53 -8 75 -10 22 -3 58 -7 80 -10 130 -17 296 -31 490 -43 236 -14 902 -6
1018 12 12 2 58 6 102 10 44 3 96 8 115 10 19 3 58 7 85 10 28 3 61 8 75 10
14 2 50 7 80 10 30 4 107 16 170 27 63 11 131 22 150 24 27 4 340 70 420 89
54 13 303 79 340 90 362 110 738 246 970 353 36 16 88 39 115 52 331 148 734
374 1068 599 70 47 136 91 145 96 9 6 21 15 28 20 6 6 22 17 34 25 52 36 292
218 365 278 225 185 394 339 623 570 l253 254 1859 0 1860 0 -17 31 c-9 18
-28 50 -42 72 -30 47 -31 49 -107 175 -31 52 -63 102 -70 110 -6 8 -21 31 -32
50 -22 40 -253 418 -287 470 -13 19 -60 95 -104 167 -194 318 -1118 1819
-1156 1878 -18 28 -40 64 -49 80 -9 17 -30 50 -46 75 -16 25 -33 52 -37 60 -4
8 -20 34 -36 57 -26 40 -27 45 -16 85 6 24 22 93 35 153 33 149 33 148 50 245
9 47 18 94 20 105 2 11 7 38 9 60 3 22 9 63 15 90 5 28 12 75 15 105 4 30 8
66 10 80 7 48 15 126 20 185 3 33 7 76 10 95 33 253 33 910 0 1265 -2 28 -7
79 -10 115 -4 36 -8 76 -10 90 -2 14 -6 50 -10 80 -11 105 -32 246 -60 410 -5
29 -45 231 -61 305 -14 71 -18 84 -68 280 -51 203 -122 427 -226 720 -34 97
-143 361 -191 464 -27 57 -49 105 -49 108 0 6 -137 278 -172 343 -17 30 -47
84 -66 120 -95 175 -331 550 -444 705 -60 81 -171 231 -196 264 -41 53 -215
265 -221 271 -4 3 -31 34 -61 70 -186 218 -567 595 -799 790 -30 25 -70 59
-90 76 -20 17 -74 61 -121 98 -47 37 -92 73 -100 79 -8 7 -31 23 -50 37 -19
13 -37 27 -40 30 -4 5 -237 172 -280 200 -148 98 -211 138 -356 226 -95 57
-176 104 -179 104 -4 0 -19 8 -33 18 -26 18 -226 124 -347 184 -33 17 -68 34
-77 39 -21 11 -263 120 -343 154 -234 102 -814 303 -951 331 -6 1 -38 10 -70
19 -33 10 -63 18 -69 19 -107 23 -123 29 -139 60 -9 17 -33 58 -55 91 -21 33
-161 260 -311 505 -150 245 -280 456 -289 470 -8 14 -111 180 -228 370 -116
190 -216 350 -222 357 -6 7 -11 14 -11 17 0 2 -58 98 -129 213 -70 114 -226
368 -346 563 -120 195 -219 356 -220 357 0 1 -19 -28 -40 -65z"/>
</g>
</svg>
