<svg xmlns="http://www.w3.org/2000/svg" version="1.1" xmlns:xlink="http://www.w3.org/1999/xlink" xmlns:svgjs="http://svgjs.dev/svgjs" viewBox="0 0 2400 800" opacity="1"><g fill="#3282b8" transform="matrix(1,0,0,1,0,-259.0599670410156)"><path d="M 0 342.5114654534186 Q 396.41567696789707 450 600 291.7888963251131 Q 917.6005328170631 450 1200 321.83268767057547 Q 1567.9551942504904 450 1800 288.119928821533 Q 2037.6556042200496 450 2400 308.5727224043642 L 2400 800 L 0 800 L 0 343.1721865954375 Z" transform="matrix(1,0,0,1,0,90)" opacity="0.05"></path><path d="M 0 342.5114654534186 Q 396.41567696789707 450 600 291.7888963251131 Q 917.6005328170631 450 1200 321.83268767057547 Q 1567.9551942504904 450 1800 288.119928821533 Q 2037.6556042200496 450 2400 308.5727224043642 L 2400 800 L 0 800 L 0 343.1721865954375 Z" transform="matrix(1,0,0,1,0,180)" opacity="0.24"></path><path d="M 0 342.5114654534186 Q 396.41567696789707 450 600 291.7888963251131 Q 917.6005328170631 450 1200 321.83268767057547 Q 1567.9551942504904 450 1800 288.119928821533 Q 2037.6556042200496 450 2400 308.5727224043642 L 2400 800 L 0 800 L 0 343.1721865954375 Z" transform="matrix(1,0,0,1,0,270)" opacity="0.43"></path><path d="M 0 342.5114654534186 Q 396.41567696789707 450 600 291.7888963251131 Q 917.6005328170631 450 1200 321.83268767057547 Q 1567.9551942504904 450 1800 288.119928821533 Q 2037.6556042200496 450 2400 308.5727224043642 L 2400 800 L 0 800 L 0 343.1721865954375 Z" transform="matrix(1,0,0,1,0,360)" opacity="0.62"></path><path d="M 0 342.5114654534186 Q 396.41567696789707 450 600 291.7888963251131 Q 917.6005328170631 450 1200 321.83268767057547 Q 1567.9551942504904 450 1800 288.119928821533 Q 2037.6556042200496 450 2400 308.5727224043642 L 2400 800 L 0 800 L 0 343.1721865954375 Z" transform="matrix(1,0,0,1,0,450)" opacity="0.81"></path><path d="M 0 342.5114654534186 Q 396.41567696789707 450 600 291.7888963251131 Q 917.6005328170631 450 1200 321.83268767057547 Q 1567.9551942504904 450 1800 288.119928821533 Q 2037.6556042200496 450 2400 308.5727224043642 L 2400 800 L 0 800 L 0 343.1721865954375 Z" transform="matrix(1,0,0,1,0,540)" opacity="1.00"></path></g></svg>