<svg xmlns="http://www.w3.org/2000/svg" version="1.1" xmlns:xlink="http://www.w3.org/1999/xlink" xmlns:svgjs="http://svgjs.dev/svgjs" viewBox="0 0 800 800"><circle r="14.5" cx="773" cy="689" fill="hsl(125, 75%, 70%)" opacity="0.27"></circle><circle r="13.5" cx="588" cy="584" fill="hsl(191, 75%, 70%)" opacity="0.24"></circle><circle r="12" cx="720" cy="113" fill="hsl(208, 75%, 70%)" opacity="0.60"></circle><circle r="10" cx="80" cy="106" fill="hsl(160, 75%, 70%)" opacity="0.39"></circle><circle r="9" cx="764" cy="734" fill="hsl(125, 75%, 70%)" opacity="0.51"></circle><circle r="8" cx="497" cy="618" fill="hsl(164, 75%, 70%)" opacity="0.44"></circle><circle r="10.5" cx="21" cy="152" fill="hsl(125, 75%, 70%)" opacity="0.83"></circle><circle r="11" cx="209" cy="146" fill="hsl(177, 75%, 70%)" opacity="0.27"></circle><circle r="9" cx="576" cy="669" fill="hsl(187, 75%, 70%)" opacity="0.89"></circle><circle r="13" cx="47" cy="724" fill="hsl(136, 75%, 70%)" opacity="0.39"></circle><circle r="10" cx="458" cy="670" fill="hsl(165, 75%, 70%)" opacity="0.51"></circle><circle r="13" cx="561" cy="533" fill="hsl(179, 75%, 70%)" opacity="0.14"></circle><circle r="13.5" cx="628" cy="557" fill="hsl(197, 75%, 70%)" opacity="0.22"></circle><circle r="14" cx="174" cy="351" fill="hsl(166, 75%, 70%)" opacity="0.81"></circle><circle r="15" cx="264" cy="470" fill="hsl(184, 75%, 70%)" opacity="0.31"></circle><circle r="14" cx="371" cy="657" fill="hsl(183, 75%, 70%)" opacity="0.61"></circle><circle r="14.5" cx="147" cy="63" fill="hsl(183, 75%, 70%)" opacity="0.82"></circle><circle r="7" cx="421" cy="718" fill="hsl(172, 75%, 70%)" opacity="1.00"></circle><circle r="13.5" cx="175" cy="624" fill="hsl(169, 75%, 70%)" opacity="0.39"></circle><circle r="15" cx="451" cy="541" fill="hsl(165, 75%, 70%)" opacity="0.88"></circle><circle r="10.5" cx="779" cy="368" fill="hsl(114, 75%, 70%)" opacity="0.41"></circle><circle r="12" cx="52" cy="323" fill="hsl(139, 75%, 70%)" opacity="0.87"></circle><circle r="8" cx="673" cy="663" fill="hsl(193, 75%, 70%)" opacity="0.33"></circle><circle r="8.5" cx="754" cy="166" fill="hsl(157, 75%, 70%)" opacity="1.00"></circle><circle r="8" cx="471" cy="15" fill="hsl(130, 75%, 70%)" opacity="0.44"></circle><circle r="10" cx="71" cy="37" fill="hsl(165, 75%, 70%)" opacity="0.54"></circle><circle r="10.5" cx="83" cy="482" fill="hsl(145, 75%, 70%)" opacity="0.95"></circle><circle r="11" cx="48" cy="579" fill="hsl(136, 75%, 70%)" opacity="0.57"></circle><circle r="10" cx="206" cy="113" fill="hsl(176, 75%, 70%)" opacity="0.44"></circle><circle r="13.5" cx="592" cy="780" fill="hsl(191, 75%, 70%)" opacity="0.70"></circle><circle r="17.5" cx="251" cy="76" fill="hsl(147, 75%, 70%)" opacity="0.59"></circle><circle r="11" cx="403" cy="284" fill="hsl(175, 75%, 70%)" opacity="0.58"></circle><circle r="9" cx="701" cy="210" fill="hsl(176, 75%, 70%)" opacity="0.75"></circle><circle r="13" cx="730" cy="359" fill="hsl(158, 75%, 70%)" opacity="0.99"></circle><circle r="12" cx="520" cy="470" fill="hsl(168, 75%, 70%)" opacity="0.86"></circle><circle r="10" cx="217" cy="337" fill="hsl(176, 75%, 70%)" opacity="0.51"></circle><circle r="11" cx="755" cy="510" fill="hsl(137, 75%, 70%)" opacity="0.35"></circle><circle r="8.5" cx="64" cy="761" fill="hsl(142, 75%, 70%)" opacity="0.57"></circle><circle r="11.5" cx="461" cy="488" fill="hsl(165, 75%, 70%)" opacity="0.58"></circle><circle r="11.5" cx="164" cy="781" fill="hsl(166, 75%, 70%)" opacity="0.82"></circle><circle r="8.5" cx="767" cy="326" fill="hsl(125, 75%, 70%)" opacity="0.30"></circle><circle r="7.5" cx="141" cy="162" fill="hsl(169, 75%, 70%)" opacity="0.97"></circle><circle r="13" cx="281" cy="412" fill="hsl(185, 75%, 70%)" opacity="0.97"></circle><circle r="7" cx="353" cy="752" fill="hsl(185, 75%, 70%)" opacity="0.42"></circle><circle r="14" cx="363" cy="395" fill="hsl(183, 75%, 70%)" opacity="0.29"></circle><circle r="7.5" cx="216" cy="366" fill="hsl(176, 75%, 70%)" opacity="0.84"></circle><circle r="13.5" cx="678" cy="731" fill="hsl(189, 75%, 70%)" opacity="0.53"></circle><circle r="8.5" cx="508" cy="208" fill="hsl(166, 75%, 70%)" opacity="0.85"></circle><circle r="11.5" cx="540" cy="731" fill="hsl(175, 75%, 70%)" opacity="0.71"></circle><circle r="12" cx="273" cy="782" fill="hsl(184, 75%, 70%)" opacity="0.99"></circle><circle r="5" cx="23" cy="790" fill="hsl(131, 75%, 70%)" opacity="0.23"></circle><circle r="11" cx="529" cy="18" fill="hsl(165, 75%, 70%)" opacity="0.87"></circle><circle r="13" cx="23" cy="672" fill="hsl(131, 75%, 70%)" opacity="0.40"></circle><circle r="6" cx="449" cy="458" fill="hsl(166, 75%, 70%)" opacity="0.15"></circle><circle r="12" cx="649" cy="177" fill="hsl(203, 75%, 70%)" opacity="0.28"></circle><circle r="11.5" cx="633" cy="61" fill="hsl(209, 75%, 70%)" opacity="0.99"></circle><circle r="12" cx="360" cy="699" fill="hsl(185, 75%, 70%)" opacity="0.35"></circle><circle r="6" cx="750" cy="234" fill="hsl(147, 75%, 70%)" opacity="0.75"></circle><circle r="11" cx="713" cy="259" fill="hsl(167, 75%, 70%)" opacity="0.88"></circle><circle r="3" cx="793" cy="269" fill="hsl(103, 75%, 70%)" opacity="0.97"></circle><circle r="7" cx="18" cy="14" fill="hsl(126, 75%, 70%)" opacity="0.79"></circle><circle r="6.5" cx="774" cy="232" fill="hsl(125, 75%, 70%)" opacity="0.51"></circle><circle r="13" cx="705" cy="308" fill="hsl(176, 75%, 70%)" opacity="0.12"></circle><circle r="11.5" cx="694" cy="19" fill="hsl(190, 75%, 70%)" opacity="0.77"></circle><circle r="9.5" cx="561" cy="633" fill="hsl(179, 75%, 70%)" opacity="0.30"></circle><circle r="14" cx="606" cy="667" fill="hsl(194, 75%, 70%)" opacity="0.79"></circle><circle r="11" cx="642" cy="657" fill="hsl(197, 75%, 70%)" opacity="0.42"></circle><circle r="10.5" cx="502" cy="699" fill="hsl(166, 75%, 70%)" opacity="0.85"></circle><circle r="8" cx="399" cy="761" fill="hsl(178, 75%, 70%)" opacity="0.83"></circle><circle r="8.5" cx="51" cy="453" fill="hsl(139, 75%, 70%)" opacity="0.24"></circle><circle r="10.5" cx="639" cy="128" fill="hsl(218, 75%, 70%)" opacity="0.61"></circle><circle r="17" cx="292" cy="510" fill="hsl(186, 75%, 70%)" opacity="0.92"></circle><circle r="5.5" cx="735" cy="791" fill="hsl(158, 75%, 70%)" opacity="0.56"></circle><circle r="9" cx="339" cy="271" fill="hsl(186, 75%, 70%)" opacity="0.69"></circle><circle r="10" cx="362" cy="192" fill="hsl(185, 75%, 70%)" opacity="0.47"></circle><circle r="12.5" cx="438" cy="134" fill="hsl(151, 75%, 70%)" opacity="0.85"></circle><circle r="14" cx="504" cy="565" fill="hsl(166, 75%, 70%)" opacity="0.99"></circle><circle r="15" cx="259" cy="274" fill="hsl(182, 75%, 70%)" opacity="0.17"></circle><circle r="9" cx="699" cy="632" fill="hsl(183, 75%, 70%)" opacity="0.67"></circle><circle r="16" cx="532" cy="232" fill="hsl(172, 75%, 70%)" opacity="0.39"></circle><circle r="10" cx="459" cy="711" fill="hsl(165, 75%, 70%)" opacity="0.19"></circle><circle r="14.5" cx="104" cy="56" fill="hsl(179, 75%, 70%)" opacity="0.69"></circle><circle r="11.5" cx="508" cy="139" fill="hsl(162, 75%, 70%)" opacity="0.50"></circle><circle r="12.5" cx="664" cy="145" fill="hsl(216, 75%, 70%)" opacity="0.68"></circle><circle r="15" cx="622" cy="475" fill="hsl(196, 75%, 70%)" opacity="0.77"></circle><circle r="10" cx="65" cy="664" fill="hsl(142, 75%, 70%)" opacity="0.70"></circle><circle r="12.5" cx="104" cy="401" fill="hsl(151, 75%, 70%)" opacity="0.43"></circle><circle r="7.5" cx="377" cy="730" fill="hsl(181, 75%, 70%)" opacity="0.51"></circle><circle r="11" cx="32" cy="206" fill="hsl(134, 75%, 70%)" opacity="0.64"></circle><circle r="12.5" cx="178" cy="666" fill="hsl(169, 75%, 70%)" opacity="0.17"></circle><circle r="7.5" cx="39" cy="775" fill="hsl(136, 75%, 70%)" opacity="0.66"></circle><circle r="9.5" cx="198" cy="191" fill="hsl(172, 75%, 70%)" opacity="0.40"></circle><circle r="14" cx="777" cy="104" fill="hsl(173, 75%, 70%)" opacity="0.24"></circle><circle r="4.5" cx="790" cy="212" fill="hsl(103, 75%, 70%)" opacity="0.18"></circle><circle r="13" cx="377" cy="435" fill="hsl(181, 75%, 70%)" opacity="0.28"></circle><circle r="16" cx="667" cy="341" fill="hsl(193, 75%, 70%)" opacity="0.70"></circle><circle r="7" cx="463" cy="372" fill="hsl(164, 75%, 70%)" opacity="0.69"></circle><circle r="12.5" cx="547" cy="61" fill="hsl(171, 75%, 70%)" opacity="0.81"></circle><circle r="6.5" cx="416" cy="483" fill="hsl(172, 75%, 70%)" opacity="0.49"></circle><circle r="14" cx="240" cy="521" fill="hsl(180, 75%, 70%)" opacity="0.58"></circle><circle r="7.5" cx="496" cy="110" fill="hsl(151, 75%, 70%)" opacity="0.63"></circle><circle r="5.5" cx="779" cy="190" fill="hsl(114, 75%, 70%)" opacity="0.91"></circle><circle r="7.5" cx="15" cy="271" fill="hsl(131, 75%, 70%)" opacity="0.21"></circle><circle r="17.5" cx="343" cy="600" fill="hsl(186, 75%, 70%)" opacity="0.32"></circle><circle r="8" cx="732" cy="765" fill="hsl(158, 75%, 70%)" opacity="0.86"></circle><circle r="12.5" cx="695" cy="595" fill="hsl(183, 75%, 70%)" opacity="0.91"></circle><circle r="8" cx="745" cy="193" fill="hsl(147, 75%, 70%)" opacity="0.86"></circle><circle r="13.5" cx="378" cy="226" fill="hsl(181, 75%, 70%)" opacity="0.16"></circle><circle r="8.5" cx="72" cy="149" fill="hsl(147, 75%, 70%)" opacity="0.42"></circle><circle r="13" cx="117" cy="208" fill="hsl(154, 75%, 70%)" opacity="0.96"></circle><circle r="10" cx="30" cy="44" fill="hsl(136, 75%, 70%)" opacity="0.98"></circle><circle r="13" cx="604" cy="621" fill="hsl(194, 75%, 70%)" opacity="0.74"></circle><circle r="17" cx="341" cy="482" fill="hsl(186, 75%, 70%)" opacity="0.54"></circle><circle r="5" cx="789" cy="751" fill="hsl(103, 75%, 70%)" opacity="0.31"></circle><circle r="11" cx="735" cy="629" fill="hsl(158, 75%, 70%)" opacity="0.76"></circle><circle r="17" cx="116" cy="326" fill="hsl(154, 75%, 70%)" opacity="0.66"></circle><circle r="11" cx="677" cy="694" fill="hsl(189, 75%, 70%)" opacity="0.84"></circle><circle r="19" cx="320" cy="103" fill="hsl(147, 75%, 70%)" opacity="0.74"></circle><circle r="16" cx="277" cy="222" fill="hsl(185, 75%, 70%)" opacity="0.40"></circle><circle r="7.5" cx="776" cy="296" fill="hsl(114, 75%, 70%)" opacity="0.70"></circle><circle r="12.5" cx="309" cy="259" fill="hsl(187, 75%, 70%)" opacity="0.37"></circle><circle r="9" cx="565" cy="20" fill="hsl(183, 75%, 70%)" opacity="0.91"></circle><circle r="9" cx="110" cy="14" fill="hsl(183, 75%, 70%)" opacity="0.53"></circle><circle r="12" cx="221" cy="469" fill="hsl(176, 75%, 70%)" opacity="0.57"></circle><circle r="8.5" cx="15" cy="566" fill="hsl(131, 75%, 70%)" opacity="0.70"></circle><circle r="16.5" cx="584" cy="381" fill="hsl(187, 75%, 70%)" opacity="0.56"></circle><circle r="9" cx="47" cy="417" fill="hsl(136, 75%, 70%)" opacity="0.85"></circle><circle r="15.5" cx="694" cy="545" fill="hsl(183, 75%, 70%)" opacity="0.61"></circle><circle r="16.5" cx="424" cy="586" fill="hsl(172, 75%, 70%)" opacity="0.90"></circle><circle r="12.5" cx="157" cy="205" fill="hsl(164, 75%, 70%)" opacity="0.55"></circle><circle r="10" cx="429" cy="505" fill="hsl(169, 75%, 70%)" opacity="0.71"></circle><circle r="10.5" cx="108" cy="455" fill="hsl(151, 75%, 70%)" opacity="0.10"></circle><circle r="9.5" cx="739" cy="15" fill="hsl(169, 75%, 70%)" opacity="0.52"></circle><circle r="6" cx="782" cy="788" fill="hsl(114, 75%, 70%)" opacity="0.91"></circle><circle r="8" cx="659" cy="636" fill="hsl(196, 75%, 70%)" opacity="0.76"></circle><circle r="11.5" cx="270" cy="349" fill="hsl(184, 75%, 70%)" opacity="0.45"></circle><circle r="11" cx="542" cy="667" fill="hsl(175, 75%, 70%)" opacity="0.58"></circle><circle r="13" cx="225" cy="780" fill="hsl(176, 75%, 70%)" opacity="0.87"></circle><circle r="13" cx="708" cy="442" fill="hsl(176, 75%, 70%)" opacity="0.19"></circle><circle r="18.5" cx="115" cy="265" fill="hsl(154, 75%, 70%)" opacity="0.65"></circle><circle r="15" cx="596" cy="725" fill="hsl(191, 75%, 70%)" opacity="0.93"></circle><circle r="13.5" cx="667" cy="437" fill="hsl(193, 75%, 70%)" opacity="0.65"></circle><circle r="14" cx="434" cy="235" fill="hsl(169, 75%, 70%)" opacity="0.52"></circle><circle r="14.5" cx="603" cy="435" fill="hsl(194, 75%, 70%)" opacity="0.25"></circle><circle r="8" cx="295" cy="584" fill="hsl(186, 75%, 70%)" opacity="0.82"></circle><circle r="16" cx="675" cy="388" fill="hsl(193, 75%, 70%)" opacity="0.15"></circle><circle r="7.5" cx="388" cy="788" fill="hsl(178, 75%, 70%)" opacity="0.79"></circle><circle r="12.5" cx="515" cy="419" fill="hsl(168, 75%, 70%)" opacity="0.29"></circle><circle r="9" cx="35" cy="482" fill="hsl(134, 75%, 70%)" opacity="0.91"></circle><circle r="11" cx="337" cy="728" fill="hsl(187, 75%, 70%)" opacity="0.44"></circle><circle r="10.5" cx="26" cy="356" fill="hsl(134, 75%, 70%)" opacity="0.91"></circle><circle r="9.5" cx="408" cy="679" fill="hsl(175, 75%, 70%)" opacity="0.25"></circle><circle r="11.5" cx="90" cy="690" fill="hsl(148, 75%, 70%)" opacity="0.96"></circle><circle r="16" cx="123" cy="520" fill="hsl(154, 75%, 70%)" opacity="0.30"></circle><circle r="9.5" cx="262" cy="381" fill="hsl(182, 75%, 70%)" opacity="0.15"></circle><circle r="11.5" cx="491" cy="369" fill="hsl(164, 75%, 70%)" opacity="0.78"></circle><circle r="12.5" cx="230" cy="717" fill="hsl(178, 75%, 70%)" opacity="0.90"></circle><circle r="10.5" cx="732" cy="672" fill="hsl(158, 75%, 70%)" opacity="0.23"></circle><circle r="11.5" cx="182" cy="459" fill="hsl(169, 75%, 70%)" opacity="0.77"></circle><circle r="15.5" cx="278" cy="700" fill="hsl(185, 75%, 70%)" opacity="0.75"></circle><circle r="9" cx="76" cy="432" fill="hsl(145, 75%, 70%)" opacity="0.65"></circle><circle r="12.5" cx="73" cy="196" fill="hsl(142, 75%, 70%)" opacity="0.25"></circle><circle r="14.5" cx="438" cy="51" fill="hsl(124, 75%, 70%)" opacity="0.96"></circle><circle r="10" cx="739" cy="285" fill="hsl(147, 75%, 70%)" opacity="0.33"></circle><circle r="12.5" cx="119" cy="100" fill="hsl(174, 75%, 70%)" opacity="0.51"></circle><circle r="10.5" cx="128" cy="767" fill="hsl(158, 75%, 70%)" opacity="0.41"></circle><circle r="15" cx="636" cy="22" fill="hsl(199, 75%, 70%)" opacity="0.94"></circle><circle r="15.5" cx="315" cy="440" fill="hsl(187, 75%, 70%)" opacity="0.57"></circle><circle r="15" cx="736" cy="573" fill="hsl(158, 75%, 70%)" opacity="0.56"></circle><circle r="15.5" cx="675" cy="94" fill="hsl(221, 75%, 70%)" opacity="0.79"></circle><circle r="8.5" cx="15" cy="86" fill="hsl(124, 75%, 70%)" opacity="0.55"></circle><circle r="9" cx="431" cy="693" fill="hsl(169, 75%, 70%)" opacity="0.74"></circle><circle r="17.5" cx="583" cy="242" fill="hsl(187, 75%, 70%)" opacity="0.27"></circle><circle r="12" cx="215" cy="682" fill="hsl(176, 75%, 70%)" opacity="0.27"></circle><circle r="12" cx="264" cy="746" fill="hsl(184, 75%, 70%)" opacity="0.52"></circle><circle r="18.5" cx="643" cy="770" fill="hsl(197, 75%, 70%)" opacity="0.97"></circle><circle r="12.5" cx="195" cy="62" fill="hsl(170, 75%, 70%)" opacity="0.19"></circle><circle r="15" cx="231" cy="216" fill="hsl(178, 75%, 70%)" opacity="0.92"></circle><circle r="9.5" cx="101" cy="166" fill="hsl(156, 75%, 70%)" opacity="0.75"></circle><circle r="8" cx="708" cy="692" fill="hsl(176, 75%, 70%)" opacity="0.83"></circle><circle r="9" cx="437" cy="369" fill="hsl(169, 75%, 70%)" opacity="0.83"></circle><circle r="9" cx="298" cy="613" fill="hsl(186, 75%, 70%)" opacity="0.47"></circle><circle r="16.5" cx="358" cy="150" fill="hsl(168, 75%, 70%)" opacity="0.25"></circle><circle r="12.5" cx="540" cy="387" fill="hsl(175, 75%, 70%)" opacity="0.54"></circle><circle r="24" cx="603" cy="314" fill="hsl(194, 75%, 70%)" opacity="0.83"></circle><circle r="6.5" cx="547" cy="614" fill="hsl(175, 75%, 70%)" opacity="0.39"></circle><circle r="9" cx="266" cy="624" fill="hsl(184, 75%, 70%)" opacity="0.11"></circle><circle r="13" cx="362" cy="348" fill="hsl(185, 75%, 70%)" opacity="0.93"></circle><circle r="14" cx="318" cy="31" fill="hsl(90, 75%, 70%)" opacity="0.37"></circle><circle r="12" cx="170" cy="419" fill="hsl(166, 75%, 70%)" opacity="0.21"></circle><circle r="7.5" cx="228" cy="16" fill="hsl(134, 75%, 70%)" opacity="0.75"></circle><circle r="13" cx="453" cy="319" fill="hsl(165, 75%, 70%)" opacity="0.67"></circle><circle r="14" cx="627" cy="204" fill="hsl(197, 75%, 70%)" opacity="0.67"></circle><circle r="8.5" cx="530" cy="594" fill="hsl(172, 75%, 70%)" opacity="0.60"></circle><circle r="14" cx="531" cy="339" fill="hsl(172, 75%, 70%)" opacity="0.19"></circle><circle r="8.5" cx="291" cy="645" fill="hsl(186, 75%, 70%)" opacity="0.15"></circle><circle r="12.5" cx="546" cy="157" fill="hsl(177, 75%, 70%)" opacity="0.41"></circle><circle r="13.5" cx="401" cy="622" fill="hsl(175, 75%, 70%)" opacity="0.19"></circle><circle r="7" cx="185" cy="167" fill="hsl(174, 75%, 70%)" opacity="0.97"></circle><circle r="9.5" cx="781" cy="544" fill="hsl(114, 75%, 70%)" opacity="0.30"></circle><circle r="10" cx="637" cy="99" fill="hsl(216, 75%, 70%)" opacity="0.49"></circle><circle r="12.5" cx="319" cy="208" fill="hsl(187, 75%, 70%)" opacity="0.98"></circle><circle r="15" cx="557" cy="449" fill="hsl(179, 75%, 70%)" opacity="0.95"></circle><circle r="7.5" cx="140" cy="132" fill="hsl(174, 75%, 70%)" opacity="0.56"></circle><circle r="9" cx="365" cy="314" fill="hsl(183, 75%, 70%)" opacity="0.42"></circle><circle r="15.5" cx="692" cy="776" fill="hsl(183, 75%, 70%)" opacity="0.33"></circle><circle r="9.5" cx="173" cy="99" fill="hsl(179, 75%, 70%)" opacity="0.90"></circle><circle r="9.5" cx="262" cy="595" fill="hsl(182, 75%, 70%)" opacity="0.81"></circle><circle r="10.5" cx="51" cy="86" fill="hsl(151, 75%, 70%)" opacity="0.51"></circle><circle r="12" cx="125" cy="656" fill="hsl(154, 75%, 70%)" opacity="0.55"></circle><circle r="9.5" cx="526" cy="100" fill="hsl(166, 75%, 70%)" opacity="0.15"></circle><circle r="13" cx="456" cy="274" fill="hsl(165, 75%, 70%)" opacity="0.16"></circle><circle r="11.5" cx="247" cy="317" fill="hsl(180, 75%, 70%)" opacity="0.61"></circle><circle r="13" cx="470" cy="592" fill="hsl(164, 75%, 70%)" opacity="0.48"></circle><circle r="12.5" cx="250" cy="561" fill="hsl(182, 75%, 70%)" opacity="0.21"></circle><circle r="11.5" cx="750" cy="458" fill="hsl(147, 75%, 70%)" opacity="0.83"></circle><circle r="8" cx="400" cy="733" fill="hsl(175, 75%, 70%)" opacity="0.40"></circle><circle r="13.5" cx="583" cy="499" fill="hsl(187, 75%, 70%)" opacity="0.56"></circle><circle r="12.5" cx="114" cy="570" fill="hsl(154, 75%, 70%)" opacity="0.30"></circle><circle r="11.5" cx="459" cy="104" fill="hsl(142, 75%, 70%)" opacity="0.11"></circle><circle r="15.5" cx="199" cy="288" fill="hsl(172, 75%, 70%)" opacity="0.48"></circle><circle r="13.5" cx="661" cy="288" fill="hsl(196, 75%, 70%)" opacity="0.20"></circle><circle r="8.5" cx="29" cy="392" fill="hsl(134, 75%, 70%)" opacity="0.57"></circle><circle r="10.5" cx="137" cy="431" fill="hsl(158, 75%, 70%)" opacity="0.54"></circle><circle r="15.5" cx="750" cy="62" fill="hsl(192, 75%, 70%)" opacity="0.36"></circle><circle r="12.5" cx="139" cy="375" fill="hsl(161, 75%, 70%)" opacity="0.54"></circle><circle r="11.5" cx="405" cy="329" fill="hsl(175, 75%, 70%)" opacity="0.91"></circle><circle r="18" cx="392" cy="535" fill="hsl(178, 75%, 70%)" opacity="0.98"></circle><circle r="11" cx="488" cy="182" fill="hsl(164, 75%, 70%)" opacity="0.41"></circle><circle r="15" cx="321" cy="328" fill="hsl(187, 75%, 70%)" opacity="0.79"></circle><circle r="8" cx="24" cy="240" fill="hsl(131, 75%, 70%)" opacity="0.53"></circle><circle r="12" cx="402" cy="371" fill="hsl(175, 75%, 70%)" opacity="0.89"></circle><circle r="13" cx="605" cy="137" fill="hsl(207, 75%, 70%)" opacity="0.65"></circle><circle r="14" cx="178" cy="245" fill="hsl(169, 75%, 70%)" opacity="0.26"></circle><circle r="6.5" cx="363" cy="276" fill="hsl(183, 75%, 70%)" opacity="0.76"></circle><circle r="4" cx="98" cy="793" fill="hsl(148, 75%, 70%)" opacity="0.24"></circle><circle r="10" cx="73" cy="545" fill="hsl(142, 75%, 70%)" opacity="0.18"></circle><circle r="15" cx="383" cy="56" fill="hsl(108, 75%, 70%)" opacity="0.38"></circle><circle r="15" cx="348" cy="539" fill="hsl(186, 75%, 70%)" opacity="0.31"></circle><circle r="14.5" cx="227" cy="611" fill="hsl(178, 75%, 70%)" opacity="0.78"></circle><circle r="7" cx="536" cy="789" fill="hsl(172, 75%, 70%)" opacity="0.72"></circle><circle r="14.5" cx="697" cy="60" fill="hsl(210, 75%, 70%)" opacity="0.39"></circle><circle r="15" cx="707" cy="494" fill="hsl(176, 75%, 70%)" opacity="0.49"></circle><circle r="5" cx="379" cy="284" fill="hsl(181, 75%, 70%)" opacity="0.65"></circle><circle r="6.5" cx="774" cy="258" fill="hsl(125, 75%, 70%)" opacity="0.60"></circle><circle r="12.5" cx="32" cy="619" fill="hsl(134, 75%, 70%)" opacity="0.23"></circle><circle r="8.5" cx="425" cy="450" fill="hsl(172, 75%, 70%)" opacity="0.51"></circle><circle r="9.5" cx="46" cy="128" fill="hsl(137, 75%, 70%)" opacity="0.25"></circle><circle r="17" cx="584" cy="174" fill="hsl(192, 75%, 70%)" opacity="0.18"></circle><circle r="16.5" cx="317" cy="379" fill="hsl(187, 75%, 70%)" opacity="0.66"></circle><circle r="8.5" cx="728" cy="221" fill="hsl(158, 75%, 70%)" opacity="0.22"></circle><circle r="11" cx="307" cy="731" fill="hsl(187, 75%, 70%)" opacity="0.11"></circle><circle r="13" cx="170" cy="539" fill="hsl(166, 75%, 70%)" opacity="0.64"></circle><circle r="10" cx="391" cy="471" fill="hsl(178, 75%, 70%)" opacity="0.35"></circle><circle r="7.5" cx="492" cy="80" fill="hsl(146, 75%, 70%)" opacity="0.56"></circle><circle r="9.5" cx="65" cy="512" fill="hsl(142, 75%, 70%)" opacity="0.22"></circle><circle r="13" cx="321" cy="780" fill="hsl(187, 75%, 70%)" opacity="0.85"></circle><circle r="11.5" cx="777" cy="618" fill="hsl(114, 75%, 70%)" opacity="0.14"></circle><circle r="13.5" cx="195" cy="752" fill="hsl(172, 75%, 70%)" opacity="0.46"></circle><circle r="8.5" cx="698" cy="138" fill="hsl(211, 75%, 70%)" opacity="0.58"></circle><circle r="9.5" cx="633" cy="605" fill="hsl(197, 75%, 70%)" opacity="0.39"></circle><circle r="13" cx="97" cy="732" fill="hsl(148, 75%, 70%)" opacity="0.68"></circle><circle r="9.5" cx="14" cy="451" fill="hsl(131, 75%, 70%)" opacity="0.57"></circle><circle r="10" cx="512" cy="769" fill="hsl(166, 75%, 70%)" opacity="0.39"></circle><circle r="5.5" cx="453" cy="439" fill="hsl(165, 75%, 70%)" opacity="0.85"></circle><circle r="10" cx="483" cy="453" fill="hsl(163, 75%, 70%)" opacity="0.59"></circle><circle r="11" cx="473" cy="642" fill="hsl(164, 75%, 70%)" opacity="0.39"></circle><circle r="16.5" cx="322" cy="664" fill="hsl(187, 75%, 70%)" opacity="0.79"></circle><circle r="8" cx="537" cy="694" fill="hsl(172, 75%, 70%)" opacity="0.41"></circle><circle r="12" cx="170" cy="720" fill="hsl(166, 75%, 70%)" opacity="0.40"></circle><circle r="14.5" cx="248" cy="657" fill="hsl(180, 75%, 70%)" opacity="0.49"></circle><circle r="15" cx="566" cy="101" fill="hsl(188, 75%, 70%)" opacity="0.27"></circle><circle r="9" cx="230" cy="392" fill="hsl(178, 75%, 70%)" opacity="0.77"></circle><circle r="10.5" cx="564" cy="755" fill="hsl(183, 75%, 70%)" opacity="0.76"></circle><circle r="11.5" cx="244" cy="428" fill="hsl(180, 75%, 70%)" opacity="0.84"></circle><circle r="7.5" cx="787" cy="155" fill="hsl(145, 75%, 70%)" opacity="0.63"></circle><circle r="11.5" cx="592" cy="33" fill="hsl(193, 75%, 70%)" opacity="0.29"></circle><circle r="14" cx="666" cy="477" fill="hsl(193, 75%, 70%)" opacity="0.39"></circle><circle r="5.5" cx="56" cy="10" fill="hsl(157, 75%, 70%)" opacity="0.64"></circle><circle r="11.5" cx="745" cy="135" fill="hsl(190, 75%, 70%)" opacity="0.35"></circle><circle r="10.5" cx="207" cy="430" fill="hsl(174, 75%, 70%)" opacity="0.88"></circle><circle r="12.5" cx="60" cy="274" fill="hsl(139, 75%, 70%)" opacity="0.55"></circle><circle r="12" cx="305" cy="555" fill="hsl(187, 75%, 70%)" opacity="0.78"></circle><circle r="13" cx="200" cy="510" fill="hsl(172, 75%, 70%)" opacity="0.39"></circle><circle r="10.5" cx="199" cy="397" fill="hsl(172, 75%, 70%)" opacity="0.58"></circle><circle r="8" cx="656" cy="250" fill="hsl(196, 75%, 70%)" opacity="0.21"></circle><circle r="9.5" cx="661" cy="601" fill="hsl(196, 75%, 70%)" opacity="0.76"></circle><circle r="12.5" cx="484" cy="740" fill="hsl(163, 75%, 70%)" opacity="0.64"></circle><circle r="9" cx="425" cy="774" fill="hsl(169, 75%, 70%)" opacity="0.21"></circle><circle r="13" cx="180" cy="20" fill="hsl(171, 75%, 70%)" opacity="0.50"></circle><circle r="10.5" cx="549" cy="568" fill="hsl(175, 75%, 70%)" opacity="0.64"></circle><circle r="13" cx="605" cy="90" fill="hsl(207, 75%, 70%)" opacity="0.39"></circle><circle r="16" cx="502" cy="513" fill="hsl(166, 75%, 70%)" opacity="0.19"></circle><circle r="7.5" cx="698" cy="660" fill="hsl(183, 75%, 70%)" opacity="0.98"></circle><circle r="16.5" cx="432" cy="183" fill="hsl(168, 75%, 70%)" opacity="0.71"></circle><circle r="7.5" cx="165" cy="152" fill="hsl(174, 75%, 70%)" opacity="0.56"></circle><circle r="11" cx="117" cy="617" fill="hsl(154, 75%, 70%)" opacity="0.94"></circle><circle r="7.5" cx="12" cy="501" fill="hsl(129, 75%, 70%)" opacity="0.17"></circle><circle r="10" cx="263" cy="24" fill="hsl(105, 75%, 70%)" opacity="0.77"></circle><circle r="7.5" cx="14" cy="308" fill="hsl(131, 75%, 70%)" opacity="0.60"></circle><circle r="7" cx="87" cy="775" fill="hsl(145, 75%, 70%)" opacity="0.22"></circle><circle r="5" cx="679" cy="636" fill="hsl(189, 75%, 70%)" opacity="0.82"></circle><circle r="8.5" cx="13" cy="737" fill="hsl(131, 75%, 70%)" opacity="0.99"></circle><circle r="12" cx="72" cy="375" fill="hsl(142, 75%, 70%)" opacity="0.47"></circle><circle r="11" cx="679" cy="236" fill="hsl(189, 75%, 70%)" opacity="0.95"></circle><circle r="9" cx="27" cy="528" fill="hsl(134, 75%, 70%)" opacity="0.59"></circle><circle r="13.5" cx="630" cy="396" fill="hsl(197, 75%, 70%)" opacity="0.80"></circle><circle r="8.5" cx="109" cy="135" fill="hsl(164, 75%, 70%)" opacity="0.30"></circle><circle r="11.5" cx="135" cy="704" fill="hsl(158, 75%, 70%)" opacity="0.70"></circle><circle r="7.5" cx="693" cy="186" fill="hsl(191, 75%, 70%)" opacity="0.17"></circle><circle r="22" cx="263" cy="153" fill="hsl(179, 75%, 70%)" opacity="0.79"></circle><circle r="15" cx="649" cy="521" fill="hsl(197, 75%, 70%)" opacity="0.52"></circle><circle r="8" cx="362" cy="775" fill="hsl(185, 75%, 70%)" opacity="0.43"></circle><circle r="8.5" cx="439" cy="742" fill="hsl(166, 75%, 70%)" opacity="0.89"></circle><circle r="12" cx="626" cy="255" fill="hsl(197, 75%, 70%)" opacity="0.68"></circle><circle r="10.5" cx="462" cy="783" fill="hsl(165, 75%, 70%)" opacity="0.59"></circle><circle r="12.5" cx="723" cy="731" fill="hsl(167, 75%, 70%)" opacity="0.22"></circle><circle r="7.5" cx="761" cy="771" fill="hsl(137, 75%, 70%)" opacity="0.35"></circle><circle r="13.5" cx="187" cy="578" fill="hsl(169, 75%, 70%)" opacity="0.59"></circle><circle r="13" cx="425" cy="414" fill="hsl(172, 75%, 70%)" opacity="0.92"></circle><circle r="9" cx="782" cy="435" fill="hsl(114, 75%, 70%)" opacity="0.61"></circle><circle r="10.5" cx="782" cy="32" fill="hsl(158, 75%, 70%)" opacity="0.90"></circle><circle r="9.5" cx="82" cy="603" fill="hsl(145, 75%, 70%)" opacity="0.84"></circle><circle r="10.5" cx="517" cy="637" fill="hsl(168, 75%, 70%)" opacity="0.55"></circle><circle r="12" cx="730" cy="402" fill="hsl(158, 75%, 70%)" opacity="0.42"></circle><circle r="6.5" cx="696" cy="164" fill="hsl(199, 75%, 70%)" opacity="0.53"></circle><circle r="16.5" cx="636" cy="704" fill="hsl(197, 75%, 70%)" opacity="0.27"></circle><circle r="10.5" cx="499" cy="48" fill="hsl(143, 75%, 70%)" opacity="0.39"></circle><circle r="18" cx="524" cy="287" fill="hsl(168, 75%, 70%)" opacity="0.90"></circle><circle r="11.5" cx="293" cy="304" fill="hsl(186, 75%, 70%)" opacity="0.23"></circle><circle r="5" cx="9" cy="405" fill="hsl(129, 75%, 70%)" opacity="0.72"></circle><circle r="11" cx="470" cy="416" fill="hsl(164, 75%, 70%)" opacity="0.40"></circle><circle r="13" cx="154" cy="482" fill="hsl(164, 75%, 70%)" opacity="0.27"></circle></svg>