<svg xmlns="http://www.w3.org/2000/svg" version="1.1" xmlns:xlink="http://www.w3.org/1999/xlink" xmlns:svgjs="http://svgjs.dev/svgjs" viewBox="0 0 2400 800"><defs><linearGradient x1="50%" y1="0%" x2="50%" y2="100%" id="sssurf-grad"><stop stop-color="#3282B8" stop-opacity="1" offset="0%"></stop><stop stop-color="hsl(208, 74%, 93%)" stop-opacity="1" offset="100%"></stop></linearGradient></defs><g fill="url(#sssurf-grad)" transform="matrix(1,0,0,1,0,-90.30801391601562)"><path d="M 0 300.61601634482287 Q 158.541404204512 450 600 313.8266716540243 Q 942.2972420588653 450 1200 322.89010919392115 Q 1621.632022295663 450 1800 313.4118294061714 Q 1971.7480404755227 450 2400 325.80006106109727 L 2400 800 L 0 800 L 0 340.20579856647464 Z" transform="matrix(1,0,0,1,0,35)" opacity="0.05"></path><path d="M 0 300.61601634482287 Q 158.541404204512 450 600 313.8266716540243 Q 942.2972420588653 450 1200 322.89010919392115 Q 1621.632022295663 450 1800 313.4118294061714 Q 1971.7480404755227 450 2400 325.80006106109727 L 2400 800 L 0 800 L 0 340.20579856647464 Z" transform="matrix(1,0,0,1,0,70)" opacity="0.21"></path><path d="M 0 300.61601634482287 Q 158.541404204512 450 600 313.8266716540243 Q 942.2972420588653 450 1200 322.89010919392115 Q 1621.632022295663 450 1800 313.4118294061714 Q 1971.7480404755227 450 2400 325.80006106109727 L 2400 800 L 0 800 L 0 340.20579856647464 Z" transform="matrix(1,0,0,1,0,105)" opacity="0.37"></path><path d="M 0 300.61601634482287 Q 158.541404204512 450 600 313.8266716540243 Q 942.2972420588653 450 1200 322.89010919392115 Q 1621.632022295663 450 1800 313.4118294061714 Q 1971.7480404755227 450 2400 325.80006106109727 L 2400 800 L 0 800 L 0 340.20579856647464 Z" transform="matrix(1,0,0,1,0,140)" opacity="0.53"></path><path d="M 0 300.61601634482287 Q 158.541404204512 450 600 313.8266716540243 Q 942.2972420588653 450 1200 322.89010919392115 Q 1621.632022295663 450 1800 313.4118294061714 Q 1971.7480404755227 450 2400 325.80006106109727 L 2400 800 L 0 800 L 0 340.20579856647464 Z" transform="matrix(1,0,0,1,0,175)" opacity="0.68"></path><path d="M 0 300.61601634482287 Q 158.541404204512 450 600 313.8266716540243 Q 942.2972420588653 450 1200 322.89010919392115 Q 1621.632022295663 450 1800 313.4118294061714 Q 1971.7480404755227 450 2400 325.80006106109727 L 2400 800 L 0 800 L 0 340.20579856647464 Z" transform="matrix(1,0,0,1,0,210)" opacity="0.84"></path><path d="M 0 300.61601634482287 Q 158.541404204512 450 600 313.8266716540243 Q 942.2972420588653 450 1200 322.89010919392115 Q 1621.632022295663 450 1800 313.4118294061714 Q 1971.7480404755227 450 2400 325.80006106109727 L 2400 800 L 0 800 L 0 340.20579856647464 Z" transform="matrix(1,0,0,1,0,245)" opacity="1"></path></g></svg>